<svg display="none" width="0" height="0" version="1.1" xmlns="http://www.w3.org/2000/svg" xmlns:xlink="http://www.w3.org/1999/xlink">
	<defs>
        <symbol id="search-icon">
            <path d="M18.031 16.617l4.283 4.282l-1.415 1.415l-4.282-4.283A8.96 8.96 0 0 1 11 20c-4.968 0-9-4.032-9-9s4.032-9 9-9s9 4.032 9 9a8.96 8.96 0 0 1-1.969 5.617zm-2.006-.742A6.977 6.977 0 0 0 18 11c0-3.868-3.133-7-7-7c-3.868 0-7 3.132-7 7c0 3.867 3.132 7 7 7a6.977 6.977 0 0 0 4.875-1.975l.15-.15z"></path>
        </symbol>
        <symbol id="hero-img-angle">
            <polygon points="50,0 100,0 50,100 0,100" />
        </symbol>
        <symbol id="github-icon">
            <path
                d="M213.5 0q88.5 0 151 62.5T427 213q0 70-41 125.5T281 416q-14 2-14-11v-58q0-27-15-40q44-5 70.5-27t26.5-77q0-34-22-58q11-26-2-57q-18-5-58 22q-26-7-54-7t-53 7q-18-12-32.5-17.5T107 88h-6q-12 31-2 57q-22 24-22 58q0 55 27 77t70 27q-11 10-13 29q-42 18-62-18q-12-20-33-22q-2 0-4.5.5t-5 3.5t8.5 9q14 7 23 31q1 2 2 4.5t6.5 9.5t13 10.5T130 371t30-2v36q0 13-14 11q-64-22-105-77.5T0 213q0-88 62.5-150.5T213.5 0z"
                fill="currentColor"
            ></path>
        </symbol>
    </defs>
</svg>